# xmcd
#
# Track frame offsets: 
#        150
#        22078
#        34704
#        48445
#        60484
#        83964
#        103554
#        115332
#        125089
#        137658
#        153691
#        169696
#        185403
#        218073
#        236855
#        248209
#        263199
#        275240
#
# Disc length: 3843 seconds
#
# Revision: 0
# Processed by: cddbd v1.4PL0 Copyright (c) Steve Scherf et al.
# Submitted via: ExactAudioCopy v0.95a3
#
DISCID=0d0f0112
DTITLE=Roger Sutcliffe - Right Hand Road
DYEAR=1999
DGENRE=Blues
TTITLE0=They Don´t Play Rhythm And Blues
TTITLE1=Walking Blues
TTITLE2=Cakewalk Into Town
TTITLE3=Annie´s Duck Walk
TTITLE4=Codine
TTITLE5=Delia
TTITLE6=San Fransisco Bay Blues
TTITLE7=Church Bell Blues
TTITLE8=Steam Train Shuffle
TTITLE9=Geordie
TTITLE10=You Don´t Miss Your Water
TTITLE11=Cannonball
TTITLE12=Dportees
TTITLE13=Washington At Valley Forge - Doctor Jazz
TTITLE14=Blues Run The Game
TTITLE15=Early Morning Blues
TTITLE16=Going  To Brownsville
TTITLE17=C.C. Rider
EXTD=
EXTT0=
EXTT1=
EXTT2=
EXTT3=
EXTT4=
EXTT5=
EXTT6=
EXTT7=
EXTT8=
EXTT9=
EXTT10=
EXTT11=
EXTT12=
EXTT13=
EXTT14=
EXTT15=
EXTT16=
EXTT17=
PLAYORDER=
